<?xml version="1.0" encoding="utf-8"?>
<!-- Generator: Adobe Illustrator 25.2.3, SVG Export Plug-In . SVG Version: 6.00 Build 0)  -->
<svg version="1.1" id="Warstwa_1" xmlns="http://www.w3.org/2000/svg" xmlns:xlink="http://www.w3.org/1999/xlink" x="0px" y="0px"
	 viewBox="0 0 343.61 209.08" style="enable-background:new 0 0 343.61 209.08;" xml:space="preserve">
<g>
	<path d="M56.48,7.74c1.58,3.53,3.21,6.95,4.61,10.46c0.55,1.39,0.59,2.98,0.82,4.49c0.07,0.44,0.02,0.9,0,1.36
		c-0.04,0.71,0.2,0.87,0.93,0.75c2.71-0.45,5.41-0.98,8.14-1.18c2.75-0.21,5.5,0.1,8.1,1.14c0.79,0.31,1.18,0.12,1.61-0.54
		c2.82-4.35,5.68-8.68,8.52-13.02c0.21-0.31,0.43-0.62,0.8-1.16c0.8,0.88,1.58,1.6,2.18,2.45c1.87,2.65,2.36,5.62,1.28,8.64
		c-1.11,3.11-2.53,6.1-3.83,9.14c-0.63,1.47-1.23,2.96-1.98,4.38c-1.53,2.9-0.97,5.67,0.44,8.37c0.8,1.54,1.81,2.97,2.65,4.49
		c0.59,1.06,1.06,2.19,1.56,3.3c0.13,0.29,0.17,0.62,0.25,0.93c-0.08,0.05-0.15,0.1-0.23,0.14c-0.3-0.25-0.66-0.46-0.9-0.77
		c-2.38-3-4.76-5.99-7.09-9.02c-1.89-2.46-3.75-4.92-6.41-6.65c-2.64-1.71-5.48-2.5-8.54-1.76c-1.77,0.43-3.44,1.27-5.15,1.94
		c-0.66,0.26-0.99,0.78-0.86,1.49c0.38,2.11,0.8,4.22,1.17,6.34c0.26,1.51,0.48,3.02,0.69,4.53c0.15,1.08-0.28,1.8-1.36,2.14
		c-3.02,0.95-6.03,1.93-9.04,2.89c-0.65,0.21-1.32,0.4-2.21,0.67c0.59,0.95,1.07,1.77,1.59,2.57c1.3,1.98,2.68,3.9,3.89,5.93
		c0.57,0.96,0.8,2.13,1.31,3.56c0.79-2,1.48-3.76,2.27-5.74c0.7,0.53,1.35,0.96,1.93,1.47c3.36,3,5.03,6.95,6.25,11.14
		c1.21,4.16,1.82,8.44,2.03,12.76c0.21,4.28,0.17,8.56,0.3,12.84c0.21,7.02,0.12,14.06,1.19,21.04c0.04,0.25-0.02,0.51-0.03,0.77
		c-0.09,0.03-0.19,0.07-0.28,0.1c-0.28-0.48-0.64-0.94-0.81-1.46c-0.5-1.59-0.99-3.19-1.35-4.82c-0.21-0.95-0.66-0.96-1.31-0.6
		c-1.36,0.75-1.74,2.08-1.77,3.46c-0.03,1.52,0.18,3.05,0.3,4.57c0.04,0.46,0.1,0.92,0.16,1.39c-0.08,0.05-0.16,0.09-0.25,0.14
		c-0.58-0.44-1.15-0.88-1.73-1.32c-0.08,0.05-0.16,0.11-0.24,0.16c0.48,0.93,0.83,1.97,1.48,2.76c1.03,1.25,2.25,2.36,3.43,3.47
		c0.23,0.22,0.71,0.35,1,0.26c0.19-0.06,0.33-0.57,0.34-0.89c0.04-0.97,0.01-1.95-0.02-2.92c-0.02-0.58,0.19-0.89,0.79-1.01
		c3.36-0.72,5.33-3,6.52-6.04c1.09-2.78,2.04-5.62,3.07-8.44c0.12-0.34,0.34-0.65,0.51-0.98c0.12,0,0.23-0.01,0.35-0.01
		c0.31,1.43,0.72,2.85,0.92,4.3c0.45,3.17,1.02,6.34,1.15,9.52c0.21,5.37-0.58,10.56-3.83,15.09c-0.63,0.88-1.37,1.46-2.47,1.51
		c-2.92,0.13-5.84,0.34-8.75,0.37c-1.46,0.01-2.43-1.14-3.33-2.14c-2.07-2.32-3.07-5.12-3.26-8.19c-0.14-2.22-0.29-4.46-0.18-6.68
		c0.39-7.25-2.09-13.47-6.3-19.23c-2.04-2.8-3.72-5.87-5.44-8.89c-0.62-1.09-0.89-2.39-1.37-3.76c-0.44,1.48-0.89,2.88-1.26,4.29
		c-1.84,7.05-3.26,14.18-4.1,21.41c-0.62,5.28-1.1,10.59-1.32,15.91c-0.26,6.33-0.34,12.67-0.2,19c0.19,8.42,0.96,16.8,2.35,25.13
		c1.3,7.79,3.22,15.39,6.06,22.76c0.18,0.45,0.38,0.9,0.56,1.35c0.17,0.41,0.33,0.83,0.32,1.43c-0.24-0.18-0.51-0.33-0.73-0.53
		c-3.83-3.61-6.97-7.75-9.61-12.3c-5.26-9.09-8.29-18.97-10.38-29.18c-1.48-7.27-2.42-14.62-2.95-22.02
		c-0.14-1.9-0.31-3.8-0.57-5.71c-9.37,17.36-11.64,35.97-9.61,55.35c-0.08,0.02-0.17,0.03-0.25,0.05c-0.13-0.25-0.3-0.49-0.4-0.75
		c-2.87-7.49-4.65-15.23-5.24-23.24c-0.82-11,0.3-21.83,3.13-32.47c1.28-4.81,3.51-9.22,5.91-13.56c3.12-5.64,6.37-11.24,7.56-17.68
		c1-5.4,1.95-10.83,2.57-16.28c1.2-10.72,3.56-21.13,7.75-31.09c2.77-6.59,6.2-12.78,11.53-17.73c0.24-0.22,0.32-0.83,0.2-1.17
		c-1.3-3.94-2.02-7.97-1.82-12.12c0.17-3.53,0.59-7.02,2.74-10.02C53.92,9.21,55.13,8.22,56.48,7.74z"/>
	<path d="M222.62,104.39c1.83-6.35,3.67-12.7,5.49-19.05c0.82-2.84,1.64-5.68,2.42-8.53c0.2-0.71,0.51-1.07,1.31-0.99
		c0.69,0.07,1.39,0.06,2.08,0.01c0.74-0.06,1.08,0.28,1.26,0.95c2.34,8.63,4.69,17.26,7.04,25.89c0.13,0.47,0.21,0.95,0.49,1.47
		c0.26-0.89,0.53-1.78,0.76-2.68c2.13-8.04,4.25-16.08,6.38-24.12c0.4-1.53,0.4-1.53,1.95-1.53c0.66,0,1.32,0.02,1.98,0.02
		c0.85,0,1.08,0.34,0.82,1.18c-0.72,2.36-1.37,4.75-2.04,7.13c-1.78,6.29-3.55,12.59-5.33,18.89c-0.59,2.08-1.22,4.14-1.76,6.23
		c-0.23,0.89-0.65,1.31-1.59,1.24c-0.87-0.06-1.74-0.04-2.61,0c-0.75,0.03-1.14-0.27-1.34-1c-1.44-5.2-2.91-10.39-4.37-15.58
		c-0.8-2.85-1.61-5.69-2.4-8.54c-0.19-0.67-0.32-1.35-0.48-2.07c-0.61,2.18-1.21,4.33-1.82,6.48c-1.85,6.56-3.71,13.13-5.54,19.7
		c-0.2,0.73-0.58,1.07-1.33,1.01c-0.21-0.02-0.42,0-0.63,0c-3.2,0.01-3.22,0.01-4.11-3.04c-2.63-8.99-5.23-17.98-7.84-26.97
		c-0.35-1.2-0.73-2.4-1.09-3.6c-0.21-0.7-0.01-1.07,0.78-1.05c0.83,0.02,1.67,0.03,2.5-0.03c0.84-0.05,1.25,0.28,1.47,1.1
		c1.8,6.61,3.64,13.22,5.47,19.83C221.23,99.25,221.92,101.8,222.62,104.39z"/>
	<path d="M283.32,104.44c0-5.17,0-10.08,0-14.99c0-4.18,0.02-8.36-0.02-12.54c-0.01-0.9,0.31-1.15,1.14-1.14
		c3.7,0.06,3.13-0.4,3.13,3.07c0.02,10.03,0.01,20.06,0.01,30.09c0,1.51-0.01,1.55-1.51,1.52c-4.41-0.09-3.12,0.75-5.57-3.02
		c-5.35-8.23-10.66-16.49-15.99-24.74c-0.11-0.17-0.22-0.35-0.47-0.73c-0.03,0.5-0.07,0.78-0.07,1.07c0,8.6,0.01,17.2,0.01,25.81
		c0,1.6-0.02,1.63-1.64,1.62c-3.11-0.02-2.77,0.4-2.77-2.8c-0.01-10,0-19.99,0-29.99c0-1.88,0.03-1.7,1.83-1.93
		c2.64-0.34,4.15,0.63,5.56,2.94c4.7,7.73,9.68,15.29,14.55,22.92C282.06,102.48,282.62,103.36,283.32,104.44z"/>
	<path d="M97.39,110.46c0.73-1.92,1.34-3.51,1.95-5.09c3.67-9.55,7.34-19.1,11-28.65c0.23-0.59,0.51-0.93,1.2-0.89
		c0.94,0.05,1.89-0.07,2.81,0.05c0.36,0.05,0.83,0.48,0.97,0.84c1.94,4.96,3.84,9.93,5.75,14.9c2.25,5.85,4.5,11.69,6.75,17.54
		c0.46,1.19,0.38,1.3-0.9,1.31c-0.59,0.01-1.18,0-1.78,0c-1.61,0-1.63-0.04-2.17-1.52c-0.91-2.48-1.83-4.96-2.8-7.42
		c-0.12-0.31-0.63-0.68-0.96-0.68c-4.14-0.04-8.29,0-12.43-0.03c-0.92-0.01-1.35,0.32-1.64,1.19c-0.82,2.51-1.76,4.99-2.62,7.49
		c-0.22,0.65-0.55,0.99-1.27,0.97C100.06,110.43,98.86,110.46,97.39,110.46z M112.76,81.25c-1.85,5.09-3.73,10.24-5.64,15.52
		c3.83,0,7.49,0,11.31,0C116.49,91.48,114.61,86.34,112.76,81.25z"/>
	<path d="M167.98,129.89c0-2.37,0-4.76,0-7.15c0-1.78,0.05-3.55-0.03-5.33c-0.04-0.88,0.32-1.11,1.08-1.09
		c0.84,0.02,1.67,0.03,2.51,0c0.82-0.03,1.09,0.36,1.09,1.14c-0.02,2.72-0.01,5.43-0.01,8.15c0.02,8.29,0.04,16.57,0.08,24.86
		c0,0.69-0.21,0.95-0.88,0.94c-3.56-0.08-3.16,0.58-3.4-2.95c-0.01-0.16-0.05-0.32-0.09-0.59c-0.59,0.64-1.04,1.25-1.61,1.72
		c-5.06,4.15-12.34,2.66-15.13-3.36c-2.47-5.32-2.17-10.66,1.39-15.51c2.72-3.7,8.12-4.93,12.21-2.85
		C166.19,128.36,167.02,129.18,167.98,129.89z M168.05,139.26c-0.03,0-0.05,0-0.08,0c0-0.83,0.03-1.67-0.01-2.5
		c-0.12-2.77-1.76-5.06-4.22-5.91c-2.47-0.86-4.95-0.06-6.9,1.93c-2.41,2.47-2.64,9.63-0.64,12.44c1.57,2.2,3.91,3.3,6.69,2.77
		c2.49-0.48,4.52-2.53,4.9-5.09C167.97,141.7,167.97,140.47,168.05,139.26z"/>
	<path d="M290.01,133.44c-1.82,5.48-3.75,11.29-5.66,17.11c-0.19,0.59-0.51,0.88-1.12,0.86c-0.03,0-0.07,0-0.1,0
		c-3.92-0.07-2.95,0.57-4.03-2.95c-2.02-6.59-3.98-13.19-5.96-19.79c-0.1-0.33-0.19-0.66-0.34-1.19c1.51,0,2.91-0.04,4.3,0.04
		c0.21,0.01,0.49,0.55,0.58,0.88c1.48,5.8,2.94,11.6,4.4,17.4c0.05,0.2,0.1,0.4,0.18,0.7c0.95-3.11,1.85-6.13,2.79-9.14
		c0.94-3.02,1.92-6.04,2.86-9.06c0.19-0.62,0.56-0.88,1.21-0.92c2.89-0.18,2.91-0.2,3.73,2.57c1.58,5.3,3.14,10.61,4.7,15.91
		c0.04,0.12,0.09,0.23,0.22,0.55c0.32-1.31,0.57-2.42,0.87-3.52c1.31-4.76,2.65-9.52,3.94-14.29c0.24-0.88,0.63-1.3,1.58-1.24
		c1.02,0.07,2.05,0.02,3.24,0.02c-0.22,0.82-0.34,1.39-0.52,1.94c-2.27,7.05-4.56,14.1-6.82,21.16c-0.2,0.63-0.52,0.93-1.19,0.91
		c-3.79-0.09-2.98,0.66-4.11-2.9C293.11,143.37,291.51,138.22,290.01,133.44z"/>
	<path d="M137.32,94.19c0,1.93,0,3.73,0,5.54c0,3.13-0.03,6.27,0.01,9.4c0.01,0.98-0.31,1.42-1.32,1.34
		c-0.73-0.06-1.46-0.02-2.19-0.02c-0.6,0-0.9-0.29-0.89-0.9c0-0.24-0.01-0.49-0.01-0.73c0-10.48,0-20.95,0-31.43
		c0-1.55,0.04-1.61,1.56-1.6c3.29,0.02,2.82-0.35,2.83,2.83c0.01,4.14-0.02,8.28-0.03,12.43c0,0.1,0.05,0.2,0.13,0.51
		c0.57-0.65,1.05-1.2,1.53-1.76c3.8-4.44,7.59-8.89,11.39-13.33c0.2-0.23,0.47-0.56,0.72-0.57c1.57-0.05,3.15-0.03,4.72-0.03
		c0.04,0.1,0.09,0.2,0.13,0.3c-0.61,0.72-1.21,1.46-1.84,2.16c-3.92,4.38-7.85,8.76-11.79,13.12c-0.6,0.67-0.76,1.13-0.06,1.91
		c4.48,5.01,8.9,10.06,13.33,15.1c0.47,0.54,0.92,1.1,1.54,1.84c-0.56,0.07-0.89,0.14-1.21,0.14c-0.84,0.02-1.69-0.09-2.5,0.03
		c-1.64,0.24-2.61-0.6-3.58-1.77c-3.99-4.82-8.06-9.59-12.1-14.37C137.64,94.3,137.56,94.29,137.32,94.19z"/>
	<path d="M305.42,110.46c-2.68,0-5.36-0.03-8.04,0.02c-0.92,0.02-1.21-0.32-1.21-1.21c0.01-10.68,0-21.37-0.04-32.05
		c0-0.99,0.28-1.43,1.35-1.42c5.15,0.04,10.3,0.02,15.45,0.01c0.64,0,1,0.23,0.98,0.91c0,0.07,0,0.14,0,0.21
		c-0.03,3.4,0.39,2.83-2.77,2.86c-3.13,0.03-6.26,0.03-9.4-0.01c-0.9-0.01-1.23,0.26-1.21,1.19c0.05,2.96,0.04,5.92,0,8.87
		c-0.01,0.87,0.31,1.15,1.16,1.14c3.38-0.04,6.75,0.01,10.13-0.03c0.8-0.01,1.1,0.21,1.08,1.06c-0.1,3.25,0.47,2.79-2.83,2.81
		c-2.78,0.02-5.57,0.04-8.35-0.01c-0.93-0.02-1.2,0.32-1.19,1.21c0.04,3.1,0.04,6.2,0,9.29c-0.01,0.91,0.3,1.22,1.21,1.21
		c3.86-0.04,7.73-0.02,11.59-0.01c1.29,0,1.39,0.1,1.39,1.35c0,2.94,0.26,2.59-2.53,2.61C309.94,110.47,307.68,110.46,305.42,110.46
		C305.42,110.46,305.42,110.46,305.42,110.46z"/>
	<path d="M124.31,145.82c0,1.2,0.04,2.33-0.03,3.45c-0.02,0.26-0.39,0.57-0.67,0.72c-3.86,2.09-7.95,2.52-12.11,1.22
		c-3.18-0.99-5.2-3.34-6.19-6.45c-1.28-4.03-1.31-8.09,0.41-12.04c2.36-5.4,8.51-8.1,14.01-6.07c3.9,1.44,5.6,4.6,6.13,8.5
		c0.17,1.27,0.14,2.57,0.22,3.85c0.04,0.74-0.26,1.1-1.02,1.1c-5.08-0.02-10.16,0-15.24-0.06c-0.87-0.01-1.11,0.17-0.98,1.04
		c0.65,4.19,2.57,6.58,5.97,7.09c2.91,0.43,5.69-0.07,8.19-1.73c0.29-0.19,0.58-0.38,0.88-0.56
		C123.92,145.85,124,145.86,124.31,145.82z M115.28,136.38c1.77,0,3.54,0,5.32,0c0.57,0,1-0.08,1.05-0.82
		c0.18-2.94-2.24-5.72-5.17-5.87c-3.7-0.2-6.29,1.78-7.37,5.56c-0.25,0.86,0.01,1.15,0.86,1.14
		C111.73,136.36,113.51,136.37,115.28,136.38z"/>
	<path d="M332.55,139.13c0.09,3.18-0.59,6.02-2.53,8.43c-2.88,3.59-6.76,4.76-11.17,4.19c-5.91-0.77-9.34-5.71-9.6-11.3
		c-0.14-3.09,0.39-6.04,2.18-8.64c2.08-3.04,5.02-4.64,8.67-4.88c4.12-0.27,7.63,0.97,10.16,4.38
		C332,133.65,332.67,136.34,332.55,139.13z M327.89,139.16c0.04-1.79-0.33-3.72-1.38-5.47c-1.24-2.07-3.01-3.32-5.52-3.33
		c-2.48-0.01-4.44,1.06-5.6,3.19c-2.09,3.83-2.19,7.76,0.03,11.62c2.27,3.96,7.62,4.34,10.44,0.76
		C327.37,144,327.91,141.78,327.89,139.16z"/>
	<path d="M222.77,140.34c-2.37,0-4.74-0.01-7.1,0c-1.19,0.01-1.29,0.17-1.08,1.38c0.9,5.3,4.78,6.94,9.86,6.41
		c1.27-0.13,2.52-0.49,3.77-0.82c0.65-0.17,0.93-0.05,1.12,0.62c0.68,2.47,0.54,2.75-2,3.28c-2.81,0.58-5.62,0.91-8.49,0.3
		c-4.54-0.97-7.81-4.23-8.52-8.9c-0.67-4.35-0.12-8.53,2.81-12.03c2.85-3.41,6.65-4.33,10.86-3.38c3.74,0.84,6.43,4.12,6.95,8.14
		c0.17,1.27,0.18,2.56,0.24,3.85c0.04,0.84-0.37,1.17-1.21,1.16C227.57,140.31,225.17,140.33,222.77,140.34
		C222.77,140.33,222.77,140.33,222.77,140.34z M214.57,136.92c3.95,0,7.77,0.01,11.58-0.03c0.2,0,0.57-0.52,0.55-0.77
		c-0.13-2.11-0.83-4-2.72-5.12c-1.86-1.09-3.86-1.11-5.77-0.06C215.94,132.17,215,134.28,214.57,136.92z"/>
	<path d="M182.89,75.89c1.63,0,3.06-0.05,4.49,0.04c0.27,0.02,0.57,0.56,0.75,0.92c2.67,5.35,5.33,10.7,8,16.09
		c0.9-1.72,1.82-3.49,2.74-5.25c1.91-3.67,3.84-7.33,5.73-11.02c0.33-0.64,0.75-0.93,1.47-0.9c1.06,0.04,2.13,0.01,3.34,0.01
		c-0.13,0.45-0.15,0.69-0.26,0.88c-3.42,6.53-6.87,13.05-10.25,19.6c-0.44,0.85-0.68,1.9-0.71,2.86c-0.08,3.34-0.06,6.68-0.01,10.02
		c0.02,1.01-0.34,1.34-1.33,1.32c-3.53-0.08-2.92,0.41-2.96-2.89c-0.03-2.68-0.06-5.36,0.02-8.04c0.04-1.34-0.33-2.51-0.93-3.68
		c-3.21-6.25-6.39-12.51-9.58-18.78C183.25,76.77,183.12,76.42,182.89,75.89z"/>
	<path d="M182.72,147.63c2.94,0,5.79,0,8.65,0c1.29,0,2.58,0.02,3.86,0c0.69-0.01,1.06,0.26,1.02,0.98c0,0.03,0,0.07,0,0.1
		c-0.01,3.05,0.3,2.68-2.55,2.69c-5.08,0.02-10.17,0.02-15.25-0.01c-0.58,0-1.62-0.19-1.65-0.39c-0.11-0.85-0.21-1.94,0.22-2.58
		c1.57-2.33,3.35-4.53,5.07-6.76c2.66-3.44,5.34-6.85,8.12-10.41c-0.44-0.02-0.8-0.06-1.15-0.06c-3.38,0-6.75-0.03-10.13,0.02
		c-0.91,0.01-1.25-0.29-1.26-1.18c-0.03-3.16-0.14-2.61,2.5-2.63c4.84-0.03,9.68-0.01,14.52-0.01c1.29,0,1.35,0.1,1.31,1.37
		c-0.03,1.03-0.26,1.9-0.94,2.77c-4.12,5.21-8.16,10.49-12.23,15.74C182.78,147.31,182.78,147.39,182.72,147.63z"/>
	<path d="M142.03,131.23c-0.51-0.02-0.88-0.05-1.25-0.05c-3.34,0-6.69-0.02-10.03,0.01c-0.88,0.01-1.24-0.25-1.24-1.19
		c0-2.62-0.04-2.62,2.55-2.62c4.8,0,9.61,0.02,14.41-0.02c1.01-0.01,1.41,0.22,1.37,1.33c-0.04,1.1-0.31,1.97-1,2.85
		c-3.96,5.04-7.85,10.12-11.76,15.19c-0.17,0.21-0.3,0.45-0.56,0.83c0.5,0.03,0.86,0.06,1.22,0.06c3.66,0,7.31,0.03,10.97-0.01
		c1-0.01,1.34,0.33,1.31,1.33c-0.08,2.72,0.35,2.45-2.46,2.46c-5.01,0.01-10.03,0.02-15.04-0.02c-0.64,0-1.82-0.22-1.84-0.42
		c-0.08-0.96-0.13-2.11,0.33-2.87c0.96-1.6,2.26-3,3.41-4.48C135.59,139.55,138.74,135.48,142.03,131.23z"/>
	<path d="M167.76,94.99c0-4.63-0.03-9.26,0.02-13.89c0.01-1.08-0.34-1.37-1.37-1.34c-2.44,0.07-4.87-0.02-7.31,0.04
		c-1.03,0.03-1.32-0.36-1.3-1.34c0.07-3.03-0.31-2.67,2.69-2.68c6.54-0.01,13.09-0.01,19.63,0c1.75,0,1.75,0.01,1.75,1.72
		c-0.01,2.59,0.21,2.26-2.31,2.27c-2.09,0.01-4.18,0.05-6.27-0.02c-1.03-0.03-1.3,0.34-1.3,1.32c0.03,9.19,0.02,18.38,0.02,27.57
		c0,1.8,0,1.81-1.77,1.8c-2.93-0.02-2.46,0.25-2.48-2.52C167.74,103.62,167.76,99.3,167.76,94.99z"/>
	<path d="M264.23,120.64c0,1.94,0.04,3.71-0.02,5.47c-0.03,0.94,0.26,1.33,1.24,1.28c1.29-0.06,2.58,0.01,3.86-0.02
		c0.77-0.01,1.14,0.27,1.14,1.1c-0.02,2.99,0.18,2.45-2.41,2.5c-1.01,0.02-2.02-0.05-3.03,0.04c-0.28,0.02-0.75,0.45-0.75,0.7
		c0,4.38-0.05,8.77,0.14,13.15c0.11,2.59,1.5,3.49,4.1,3.1c1.47-0.22,1.47-0.22,1.55,1.27c0.12,2.16,0.13,2.18-2.16,2.48
		c-2.47,0.32-4.83,0.14-6.58-1.95c-1.26-1.5-1.53-3.34-1.55-5.2c-0.05-4.07-0.05-8.15,0-12.22c0.01-1.03-0.26-1.41-1.34-1.38
		c-2.59,0.06-2.2,0.26-2.3-2.28c-0.04-1.01,0.26-1.33,1.28-1.31c2.6,0.03,2.33,0.37,2.35-2.32c0-0.31,0-0.63,0-0.94
		c0.03-2.78-0.34-2.22,2.35-2.97C262.75,120.95,263.43,120.82,264.23,120.64z"/>
	<path d="M239.31,139.5c-0.06,3.13,0.96,5.75,3.7,7.47c1.96,1.23,4.14,1.33,6.36,0.95c0.85-0.15,1.69-0.39,2.52-0.67
		c0.57-0.19,0.86-0.05,0.99,0.51c0.63,2.88,1.19,2.76-2.02,3.56c-2.27,0.57-4.6,0.74-6.93,0.28c-5.28-1.04-8.75-4.89-9.26-10.29
		c-0.37-3.95,0.41-7.61,3.22-10.53c3.46-3.61,7.83-4.38,12.59-3.55c0.14,0.02,0.27,0.06,0.41,0.1c2.93,0.72,2.91,0.71,1.91,3.6
		c-0.23,0.67-0.48,0.76-1.13,0.51c-2.05-0.81-4.17-1.09-6.34-0.56c-3.51,0.86-5.77,3.64-6.01,7.38
		C239.29,138.66,239.31,139.08,239.31,139.5z"/>
	<path d="M85.09,147.2c0.85,0.26,1.43,0.48,2.03,0.6c3.22,0.68,5.52-0.73,6.22-3.95c0.32-1.48,0.48-3.03,0.49-4.55
		c0.05-7,0.02-14,0.03-21c0-1.53,0.04-1.58,1.59-1.57c3.2,0.01,2.8-0.34,2.8,2.76c0.02,6.55,0.04,13.09-0.01,19.64
		c-0.03,3.13-0.56,6.16-2.31,8.87c-2.02,3.13-6.35,4.72-9.91,3.58c-0.61-0.2-0.95-0.5-0.94-1.18
		C85.11,149.38,85.09,148.36,85.09,147.2z"/>
	<path d="M204.87,139.42c0,3.55-0.04,7.1,0.02,10.64c0.02,1.08-0.37,1.36-1.39,1.36c-3.15-0.02-3.15,0.02-3.15-3.15
		c0-6.5,0.02-13.01-0.02-19.51c-0.01-1.03,0.28-1.49,1.35-1.39c0.62,0.06,1.25,0.05,1.88,0c0.98-0.08,1.34,0.28,1.33,1.3
		C204.84,132.26,204.87,135.84,204.87,139.42z"/>
	<path d="M85.76,65.05c-0.63-1.51-1.11-2.92-1.78-4.24c-1.63-3.23-3.31-6.43-5.02-9.62c-1.59-2.99-2.93-6.08-3.78-9.37
		c-0.09-0.37-0.14-0.75-0.19-1.13c-0.01-0.09,0.06-0.18,0.16-0.45c0.29,0.37,0.52,0.65,0.74,0.94c3.77,4.82,7.53,9.65,11.31,14.46
		c0.28,0.35,0.63,0.65,0.94,0.97c1.32,1.34,1.39,1.37,0.57,3.03C87.84,61.43,86.8,63.16,85.76,65.05z"/>
	<path d="M145.21,117.48c-0.22,0.3-0.41,0.61-0.65,0.89c-1.41,1.67-2.94,3.25-4.22,5.01c-1.15,1.58-2.59,1.02-4.19,1.04
		c0.16-0.39,0.22-0.65,0.35-0.87c1.12-1.83,2.27-3.65,3.37-5.5c0.38-0.63,0.83-0.95,1.59-0.92c1.2,0.05,2.4,0.01,3.6,0.01
		C145.12,117.26,145.17,117.37,145.21,117.48z"/>
	<path d="M95.55,63.51c-1.69,1.24-3.34,2.54-5.09,3.7c-0.55,0.36-1.35,0.35-2.04,0.51c0.05-0.73-0.13-1.58,0.19-2.17
		c0.77-1.46,1.75-2.81,2.7-4.17c0.12-0.18,0.62-0.31,0.79-0.2C93.28,61.92,94.43,62.73,95.55,63.51z"/>
	<path d="M205.4,120.91c0,1.61-1.22,2.76-2.9,2.73c-1.54-0.02-2.74-1.27-2.71-2.83c0.02-1.52,1.26-2.74,2.81-2.76
		C204.18,118.03,205.39,119.28,205.4,120.91z"/>
	<path d="M79.86,82.32c-0.14-1.97-0.34-3.93-0.4-5.9c-0.07-2.54-0.06-5.08-0.02-7.62c0.01-0.79,0.21-1.58,0.41-2.35
		c0.06-0.23,0.42-0.39,0.64-0.58c0.16,0.23,0.45,0.45,0.47,0.7c0.1,1.18,0.23,2.36,0.16,3.54c-0.23,3.92-0.55,7.84-0.84,11.75
		c-0.01,0.16-0.09,0.31-0.14,0.47C80.04,82.32,79.95,82.32,79.86,82.32z"/>
	<path d="M80.54,92.22c-0.74-2.8-0.84-5.66-0.67-8.53c0.11-0.01,0.21-0.02,0.32-0.03c0.23,2.84,0.47,5.69,0.7,8.53
		C80.78,92.2,80.66,92.21,80.54,92.22z"/>
</g>
</svg>
